<?xml version="1.0" encoding="utf-8"?>
<!-- Generator: Adobe Illustrator 17.0.0, SVG Export Plug-In . SVG Version: 6.00 Build 0)  -->
<!DOCTYPE svg PUBLIC "-//W3C//DTD SVG 1.1 Tiny//EN" "http://www.w3.org/Graphics/SVG/1.1/DTD/svg11-tiny.dtd">
<svg version="1.1" baseProfile="tiny" id="Layer_1" xmlns="http://www.w3.org/2000/svg" xmlns:xlink="http://www.w3.org/1999/xlink"
	 x="0px" y="0px" width="200px" height="100px" viewBox="0 0 200 100" xml:space="preserve">
<g id="Arrow_27">
	<g>
		<polygon fill="#4D4D4D" points="118.182,38.874 48.457,38.874 48.457,34.272 33.599,50.91 48.457,67.548 48.457,62.952 
			118.182,62.952 		"/>
	</g>
	<rect x="44.151" y="34.272" fill="none" width="84.583" height="33.276"/>
</g>
<path fill="#29ABE2" d="M142.552,21.075c-16.477,0-29.835,13.358-29.835,29.835c0,16.477,13.358,29.835,29.835,29.835
	c16.477,0,29.835-13.358,29.835-29.835C172.387,34.433,159.029,21.075,142.552,21.075z M142.552,74.544
	c-13.053,0-23.634-10.581-23.634-23.634c0-13.053,10.581-23.634,23.634-23.634c13.053,0,23.634,10.581,23.634,23.634
	C166.186,63.963,155.604,74.544,142.552,74.544z M142.552,33.057c-9.86,0-17.853,7.993-17.853,17.853
	c0,9.86,7.993,17.853,17.853,17.853c9.86,0,17.853-7.993,17.853-17.853C160.405,41.05,152.412,33.057,142.552,33.057z"/>
</svg>
