<?xml version="1.0" encoding="utf-8"?>
<!-- Generator: Adobe Illustrator 17.0.0, SVG Export Plug-In . SVG Version: 6.00 Build 0)  -->
<!DOCTYPE svg PUBLIC "-//W3C//DTD SVG 1.1 Tiny//EN" "http://www.w3.org/Graphics/SVG/1.1/DTD/svg11-tiny.dtd">
<svg version="1.1" baseProfile="tiny" id="Layer_1" xmlns="http://www.w3.org/2000/svg" xmlns:xlink="http://www.w3.org/1999/xlink"
	 x="0px" y="0px" width="200px" height="100px" viewBox="0 0 200 100" overflow="scroll" xml:space="preserve">
<g id="Layer_1_1_">
</g>
<g id="Layer_2">
	<g>
		<polygon fill="#29ABE2" points="125.556,17.954 34.254,17.954 34.254,11.636 14.477,27.327 34.254,43.018 34.254,36.704 
			125.556,36.704 		"/>
		<path fill="#29ABE2" d="M144.532,4.095c-12.831,0-23.232,10.401-23.232,23.232s10.401,23.232,23.232,23.232
			s23.232-10.401,23.232-23.232S157.361,4.095,144.532,4.095z M144.532,45.729c-10.163,0-18.403-8.239-18.403-18.403
			c0-10.163,8.239-18.403,18.403-18.403c10.163,0,18.403,8.239,18.403,18.403S154.695,45.729,144.532,45.729z M144.532,13.425
			c-7.678,0-13.902,6.224-13.902,13.902s6.224,13.902,13.902,13.902c7.678,0,13.902-6.224,13.902-13.902
			S152.21,13.425,144.532,13.425z"/>
		<path fill="#FFFFFF" d="M172.015,45.47c-0.87,0-1.74,0.092-2.565,0.23c-1.053-1.923-3.663-2.978-5.77-2.978
			c-1.1,0-2.198,0.275-3.161,0.825c-1.465-1.557-3.297-2.427-5.448-2.427c-1.465,0-3.618,0.64-4.716,1.602V27.566
			c0-3.16-2.703-5.861-5.861-5.861c-3.113,0-5.861,2.793-5.861,5.861v26.377c-2.885,0-5.861-4.396-11.723-4.396
			c-4.396,0-5.861,3.435-5.861,7.326c0,1.283,5.313,3.618,6.365,4.123c1.007,0.549,2.015,1.098,2.976,1.693
			c2.427,1.51,4.533,3.251,6.64,5.128c3.343,2.931,7.464,6.183,7.464,11.036v1.465h29.308v-1.465c0-8.013,5.861-15.844,5.861-24.728
			C179.662,48.952,177.555,45.47,172.015,45.47z"/>
		<path d="M182.365,68.643c-1.008,2.793-2.703,7.326-2.703,10.211v13.189c0,3.251-2.61,5.861-5.861,5.861h-29.308
			c-3.251,0-5.861-2.61-5.861-5.861V78.855c0-2.197-3.938-5.311-5.448-6.64c-1.878-1.648-3.756-3.205-5.908-4.58
			c-4.258-2.655-12.089-4.625-12.089-10.761c0-7.28,3.983-13.189,11.723-13.189c2.015,0,3.983,0.32,5.861,1.007V27.566
			c0-6.32,5.358-11.723,11.677-11.723c6.411,0,11.769,5.311,11.769,11.723v7.739c1.923,0.138,3.755,0.733,5.448,1.695
			c0.642-0.092,1.33-0.138,1.97-0.138c2.931,0,5.861,0.962,8.151,2.748c8.654-0.092,13.737,5.815,13.737,14.287
			C185.524,59.025,184.103,63.879,182.365,68.643z M172.015,45.47c-0.87,0-1.74,0.092-2.565,0.23
			c-1.053-1.923-3.663-2.978-5.77-2.978c-1.1,0-2.198,0.275-3.161,0.825c-1.465-1.557-3.297-2.427-5.448-2.427
			c-1.465,0-3.618,0.64-4.716,1.602V27.566c0-3.16-2.703-5.861-5.861-5.861c-3.113,0-5.861,2.793-5.861,5.861v26.377
			c-2.885,0-5.861-4.396-11.723-4.396c-4.396,0-5.861,3.435-5.861,7.326c0,1.283,5.313,3.618,6.365,4.123
			c1.007,0.549,2.015,1.098,2.976,1.693c2.427,1.51,4.533,3.251,6.64,5.128c3.343,2.931,7.464,6.183,7.464,11.036v1.465h29.308
			v-1.465c0-8.013,5.861-15.844,5.861-24.728C179.662,48.952,177.555,45.47,172.015,45.47z M170.87,86.181
			c-1.603,0-2.931,1.328-2.931,2.931s1.328,2.931,2.931,2.931c1.603,0,2.931-1.328,2.931-2.931S172.474,86.181,170.87,86.181z"/>
	</g>
</g>
</svg>
